<svg version="1.1" id="Layer_1" xmlns="http://www.w3.org/2000/svg" xmlns:xlink="http://www.w3.org/1999/xlink" x="0px"
	y="0px" width="100%" viewBox="0 0 500 500" enable-background="new 0 0 500 500" xml:space="preserve">
	<path fill="transparent" opacity="1.000000" stroke="none" d="
M264.000000,501.000000 
	C176.000015,501.000000 88.500038,501.000000 1.000047,501.000000 
	C1.000031,334.333405 1.000031,167.666794 1.000016,1.000136 
	C167.666565,1.000091 334.333130,1.000091 500.999756,1.000046 
	C500.999847,167.666519 500.999847,334.333038 500.999939,500.999786 
	C422.166656,501.000000 343.333344,501.000000 264.000000,501.000000 
M169.481506,471.992249 
	C189.432983,479.575317 210.167252,484.343018 231.339630,485.652130 
	C254.708359,487.097076 278.081055,486.271606 301.235626,481.110077 
	C346.930664,470.923889 386.162476,449.232849 418.964966,416.098114 
	C439.008057,395.852081 454.708069,372.473480 466.300964,346.324219 
	C486.743500,300.213531 491.657776,252.253830 481.533356,203.217789 
	C470.458099,149.576660 443.572235,104.800667 401.175690,69.662628 
	C362.516113,37.621788 317.971710,19.853086 268.085358,16.310949 
	C245.736832,14.724112 223.336090,15.930871 201.173660,20.892931 
	C146.754898,33.077038 101.683670,60.447102 67.071037,103.969391 
	C33.351723,146.368408 15.886851,194.922073 15.803798,249.498856 
	C15.772266,270.218689 17.814007,290.574158 23.117626,310.583344 
	C34.183434,352.331726 55.106037,388.503693 85.715347,418.864075 
	C109.492241,442.447601 137.325897,459.998444 169.481506,471.992249 
z" />
	<path fill="#FFFFFF" opacity="1.000000" stroke="none" d="
M169.103897,471.891479 
	C137.325897,459.998444 109.492241,442.447601 85.715347,418.864075 
	C55.106037,388.503693 34.183434,352.331726 23.117626,310.583344 
	C17.814007,290.574158 15.772266,270.218689 15.803798,249.498856 
	C15.886851,194.922073 33.351723,146.368408 67.071037,103.969391 
	C101.683670,60.447102 146.754898,33.077038 201.173660,20.892931 
	C223.336090,15.930871 245.736832,14.724112 268.085358,16.310949 
	C317.971710,19.853086 362.516113,37.621788 401.175690,69.662628 
	C443.572235,104.800667 470.458099,149.576660 481.533356,203.217789 
	C491.657776,252.253830 486.743500,300.213531 466.300964,346.324219 
	C454.708069,372.473480 439.008057,395.852081 418.964966,416.098114 
	C386.162476,449.232849 346.930664,470.923889 301.235626,481.110077 
	C278.081055,486.271606 254.708359,487.097076 231.339630,485.652130 
	C210.167252,484.343018 189.432983,479.575317 169.103897,471.891479 
M155.940842,340.499451 
	C155.946808,345.329163 155.901337,350.159607 155.968613,354.988464 
	C156.154114,368.303711 166.862030,378.979980 180.269073,378.996063 
	C227.234543,379.052399 274.200165,379.059113 321.165649,379.008911 
	C335.586029,378.993500 346.082581,368.581787 346.116730,354.163422 
	C346.197174,320.188629 346.193268,286.213196 346.076904,252.238525 
	C346.026611,237.554291 335.558411,227.249786 320.793549,227.023254 
	C314.299774,226.923645 307.803345,226.999054 301.308105,226.998917 
	C261.503967,226.998093 221.699646,227.064819 181.895737,226.966492 
	C165.345993,226.925613 155.526901,240.420547 155.775909,253.066650 
	C156.343002,281.867584 155.945999,310.687500 155.940842,340.499451 
M206.509583,141.013916 
	C198.731522,149.087189 192.912628,158.410995 190.694031,169.411148 
	C189.328003,176.184128 189.148453,183.247711 188.961334,190.194962 
	C188.689499,200.287842 188.891617,210.393478 188.891617,220.583511 
	C196.902405,220.583511 204.261414,220.583511 211.925110,220.583511 
	C211.925110,208.188324 211.855331,196.216583 211.940994,184.245956 
	C212.079391,164.906265 227.177368,148.081192 246.085709,146.067596 
	C266.231079,143.922287 285.088409,156.214432 288.684784,175.539841 
	C290.698059,186.358246 289.825684,197.719360 290.176788,208.838348 
	C290.300720,212.763794 290.196625,216.696442 290.196625,220.696899 
	C298.200104,220.696899 305.445801,220.696899 313.055695,220.696899 
	C313.055695,207.105392 313.191345,193.827927 312.972443,180.556320 
	C312.907471,176.617004 312.216858,172.593597 311.184021,168.779022 
	C298.536499,122.067924 242.576584,106.913277 206.509583,141.013916 
M73.918289,272.581635 
	C66.798187,265.433624 59.678093,258.285614 51.798367,250.374985 
	C53.928986,248.710312 55.652355,247.625366 57.060482,246.223740 
	C73.947449,229.414688 90.801285,212.572266 107.627014,195.701889 
	C110.507706,192.813522 110.974213,188.140686 108.817146,185.813232 
	C106.375587,183.178802 102.326027,183.423141 99.135696,186.611877 
	C79.690178,206.047699 60.258148,225.497223 40.881485,245.001633 
	C36.481319,249.430786 36.676262,252.834061 41.202438,257.376038 
	C55.080856,271.302948 68.958412,285.230713 82.844688,299.149750 
	C88.375847,304.693970 93.897285,310.248566 99.486404,315.733978 
	C102.016479,318.217072 105.497971,319.375214 107.885323,316.664856 
	C109.462212,314.874573 109.404121,311.346680 109.393471,308.599426 
	C109.389099,307.471619 107.642555,306.291992 106.588371,305.235870 
	C95.877426,294.505463 85.145790,283.795685 73.918289,272.581635 
M416.384491,284.884216 
	C408.854004,292.425842 401.280151,299.924896 393.816803,307.532379 
	C391.239227,310.159698 391.008362,313.308685 393.580963,315.997589 
	C396.123169,318.654724 399.193024,318.628113 402.099152,316.303497 
	C403.004669,315.579132 403.793579,314.706085 404.616821,313.882080 
	C423.447327,295.034302 442.279877,276.188538 461.100281,257.330688 
	C465.823242,252.598312 465.835052,249.483704 461.052673,244.679688 
	C444.135620,227.686188 427.189178,210.721954 410.251007,193.749451 
	C407.545776,191.038727 404.911377,188.249252 402.089020,185.665741 
	C399.246735,183.063995 396.182495,183.498016 393.619843,186.030090 
	C391.093201,188.526627 391.436676,191.432678 393.506805,194.127747 
	C394.312622,195.176895 395.333954,196.063034 396.275604,197.004974 
	C412.993469,213.728455 429.716797,230.446503 446.429077,247.175583 
	C447.663635,248.411407 448.823151,249.722183 450.184418,251.176331 
	C438.807098,262.523041 427.846436,273.454254 416.384491,284.884216 
z" />
	<path fill="#B98873" opacity="1.000000" stroke="none" d="
M155.940796,339.999573 
	C155.945999,310.687500 156.343002,281.867584 155.775909,253.066650 
	C155.526901,240.420547 165.345993,226.925613 181.895737,226.966492 
	C221.699646,227.064819 261.503967,226.998093 301.308105,226.998917 
	C307.803345,226.999054 314.299774,226.923645 320.793549,227.023254 
	C335.558411,227.249786 346.026611,237.554291 346.076904,252.238525 
	C346.193268,286.213196 346.197174,320.188629 346.116730,354.163422 
	C346.082581,368.581787 335.586029,378.993500 321.165649,379.008911 
	C274.200165,379.059113 227.234543,379.052399 180.269073,378.996063 
	C166.862030,378.979980 156.154114,368.303711 155.968613,354.988464 
	C155.901337,350.159607 155.946808,345.329163 155.940796,339.999573 
M230.960663,307.396118 
	C238.483887,312.931671 236.485001,319.303101 232.630142,325.882294 
	C231.963516,327.020050 231.503357,328.291351 231.045914,329.537018 
	C228.519669,336.416107 231.664047,340.923157 239.070847,341.132111 
	C246.533722,341.342651 253.997467,341.543610 261.457123,341.841797 
	C269.530945,342.164490 273.907074,336.173462 270.863007,328.815094 
	C269.719971,326.052032 268.633972,323.248932 267.252472,320.604889 
	C265.242188,316.757416 265.469604,313.864563 268.771210,310.432190 
	C276.104797,302.808167 276.904755,291.885895 271.644684,282.221313 
	C267.179443,274.017151 256.867432,269.271545 246.982498,270.917236 
	C231.066452,273.566925 221.856110,291.654083 230.960663,307.396118 
z" />
	<path fill="#B98873" opacity="1.000000" stroke="none" d="
M206.760864,140.760345 
	C242.576584,106.913277 298.536499,122.067924 311.184021,168.779022 
	C312.216858,172.593597 312.907471,176.617004 312.972443,180.556320 
	C313.191345,193.827927 313.055695,207.105392 313.055695,220.696899 
	C305.445801,220.696899 298.200104,220.696899 290.196625,220.696899 
	C290.196625,216.696442 290.300720,212.763794 290.176788,208.838348 
	C289.825684,197.719360 290.698059,186.358246 288.684784,175.539841 
	C285.088409,156.214432 266.231079,143.922287 246.085709,146.067596 
	C227.177368,148.081192 212.079391,164.906265 211.940994,184.245956 
	C211.855331,196.216583 211.925110,208.188324 211.925110,220.583511 
	C204.261414,220.583511 196.902405,220.583511 188.891617,220.583511 
	C188.891617,210.393478 188.689499,200.287842 188.961334,190.194962 
	C189.148453,183.247711 189.328003,176.184128 190.694031,169.411148 
	C192.912628,158.410995 198.731522,149.087189 206.760864,140.760345 
z" />
	<path fill="#B98873" opacity="1.000000" stroke="none" d="
M74.169121,272.830872 
	C85.145790,283.795685 95.877426,294.505463 106.588371,305.235870 
	C107.642555,306.291992 109.389099,307.471619 109.393471,308.599426 
	C109.404121,311.346680 109.462212,314.874573 107.885323,316.664856 
	C105.497971,319.375214 102.016479,318.217072 99.486404,315.733978 
	C93.897285,310.248566 88.375847,304.693970 82.844688,299.149750 
	C68.958412,285.230713 55.080856,271.302948 41.202438,257.376038 
	C36.676262,252.834061 36.481319,249.430786 40.881485,245.001633 
	C60.258148,225.497223 79.690178,206.047699 99.135696,186.611877 
	C102.326027,183.423141 106.375587,183.178802 108.817146,185.813232 
	C110.974213,188.140686 110.507706,192.813522 107.627014,195.701889 
	C90.801285,212.572266 73.947449,229.414688 57.060482,246.223740 
	C55.652355,247.625366 53.928986,248.710312 51.798367,250.374985 
	C59.678093,258.285614 66.798187,265.433624 74.169121,272.830872 
z" />
	<path fill="#B98873" opacity="1.000000" stroke="none" d="
M416.635132,284.634827 
	C427.846436,273.454254 438.807098,262.523041 450.184418,251.176331 
	C448.823151,249.722183 447.663635,248.411407 446.429077,247.175583 
	C429.716797,230.446503 412.993469,213.728455 396.275604,197.004974 
	C395.333954,196.063034 394.312622,195.176895 393.506805,194.127747 
	C391.436676,191.432678 391.093201,188.526627 393.619843,186.030090 
	C396.182495,183.498016 399.246735,183.063995 402.089020,185.665741 
	C404.911377,188.249252 407.545776,191.038727 410.251007,193.749451 
	C427.189178,210.721954 444.135620,227.686188 461.052673,244.679688 
	C465.835052,249.483704 465.823242,252.598312 461.100281,257.330688 
	C442.279877,276.188538 423.447327,295.034302 404.616821,313.882080 
	C403.793579,314.706085 403.004669,315.579132 402.099152,316.303497 
	C399.193024,318.628113 396.123169,318.654724 393.580963,315.997589 
	C391.008362,313.308685 391.239227,310.159698 393.816803,307.532379 
	C401.280151,299.924896 408.854004,292.425842 416.635132,284.634827 
z" />
	<path fill="#FFFFFF" opacity="1.000000" stroke="none" d="
M230.753723,307.088379 
	C221.856110,291.654083 231.066452,273.566925 246.982498,270.917236 
	C256.867432,269.271545 267.179443,274.017151 271.644684,282.221313 
	C276.904755,291.885895 276.104797,302.808167 268.771210,310.432190 
	C265.469604,313.864563 265.242188,316.757416 267.252472,320.604889 
	C268.633972,323.248932 269.719971,326.052032 270.863007,328.815094 
	C273.907074,336.173462 269.530945,342.164490 261.457123,341.841797 
	C253.997467,341.543610 246.533722,341.342651 239.070847,341.132111 
	C231.664047,340.923157 228.519669,336.416107 231.045914,329.537018 
	C231.503357,328.291351 231.963516,327.020050 232.630142,325.882294 
	C236.485001,319.303101 238.483887,312.931671 230.753723,307.088379 
z" />
</svg>